<?xml version="1.0" standalone="no"?>
<!DOCTYPE svg PUBLIC "-//W3C//DTD SVG 20010904//EN"
 "http://www.w3.org/TR/2001/REC-SVG-20010904/DTD/svg10.dtd">
<svg version="1.0" xmlns="http://www.w3.org/2000/svg"
 width="1440.000000pt" height="1440.000000pt" viewBox="0 0 1440.000000 1440.000000"
 preserveAspectRatio="xMidYMid meet">

<g transform="translate(0.000000,1440.000000) scale(0.100000,-0.100000)"
fill="#000000" stroke="none">
<path d="M0 7200 l0 -7200 7200 0 7200 0 0 7200 0 7200 -7200 0 -7200 0 0
-7200z m13420 5156 c0 -3 -17 -10 -37 -17 -21 -6 -67 -25 -102 -41 -34 -16
-66 -27 -69 -23 -10 9 10 21 68 41 30 10 66 24 80 31 24 12 60 17 60 9z m-270
-101 c0 -7 -91 -47 -96 -42 -7 6 18 23 51 35 35 12 45 14 45 7z m-180 -74 c-8
-5 -26 -12 -40 -15 l-25 -7 25 15 c14 9 32 15 40 15 13 0 13 -1 0 -8z m-85
-31 c-8 -12 -136 -72 -142 -66 -3 3 17 14 44 26 26 11 59 27 73 34 32 18 32
18 25 6z m-5278 -66 c-3 -3 -12 -4 -19 -1 -8 3 -5 6 6 6 11 1 17 -2 13 -5z
m-67 -13 c0 -10 -41 -25 -100 -36 -19 -4 -39 -11 -45 -15 -13 -10 -95 -17 -89
-8 3 5 17 8 32 9 15 0 63 13 107 29 94 33 95 33 95 21z m5167 -7 c-3 -3 -12
-4 -19 -1 -8 3 -5 6 6 6 11 1 17 -2 13 -5z m-67 -18 c0 -8 -278 -126 -296
-125 -10 0 3 10 31 23 28 12 68 31 90 42 64 30 175 69 175 60z m-3840 -244
c31 -5 46 -12 48 -25 3 -13 -3 -17 -25 -16 -15 0 -68 -3 -118 -7 -50 -4 -152
-2 -230 5 -77 6 -198 16 -270 22 -71 5 -141 13 -155 16 l-25 6 25 8 c29 10
684 2 750 -9z m-2620 -18 c0 -4 -70 -24 -108 -30 -36 -7 -115 -34 -137 -48
-16 -10 -25 -10 -45 2 -23 12 -23 13 -3 9 12 -3 23 -1 25 4 6 17 230 79 256
71 6 -2 12 -6 12 -8z m5845 9 c-11 -3 -24 -9 -30 -13 -17 -13 -67 -22 -60 -11
7 12 61 29 90 29 l20 0 -20 -5z m-6195 -97 c0 -2 -7 -6 -15 -10 -8 -3 -15 -1
-15 4 0 6 7 10 15 10 8 0 15 -2 15 -4z m69 -10 c-2 -2 -44 -20 -94 -39 -83
-33 -205 -85 -329 -141 -28 -12 -76 -33 -106 -45 -73 -30 -127 -55 -295 -139
-190 -94 -210 -105 -213 -129 -2 -15 -8 -19 -23 -16 -16 4 -19 0 -19 -25 0
-26 3 -29 23 -24 22 5 22 5 3 -16 -20 -23 -14 -44 6 -24 7 7 19 12 27 12 17 0
59 19 218 96 62 30 114 54 117 54 2 0 37 15 78 34 40 18 84 37 98 41 29 8 58
21 154 65 38 17 92 40 120 49 126 45 218 73 223 67 3 -3 -3 -9 -13 -12 -10 -4
-42 -17 -69 -29 -28 -13 -91 -39 -140 -59 -130 -53 -256 -120 -365 -194 -104
-71 -136 -103 -145 -144 -4 -19 -13 -28 -26 -28 -16 0 -19 -7 -19 -52 0 -34
-6 -58 -17 -70 -9 -10 -16 -31 -15 -48 0 -19 -5 -31 -17 -35 -9 -3 -35 -21
-56 -41 -32 -29 -45 -35 -68 -30 -19 4 -29 1 -33 -9 -4 -8 -11 -15 -18 -15
-16 -1 -62 -42 -69 -62 -4 -10 -15 -18 -26 -18 -10 0 -42 -16 -71 -35 -29 -19
-55 -35 -59 -35 -4 0 -35 -20 -69 -45 -34 -25 -66 -45 -71 -45 -6 0 -15 -9
-21 -20 -6 -11 -20 -20 -31 -20 -28 0 -219 -93 -292 -142 -32 -22 -83 -59
-113 -84 -30 -25 -59 -42 -64 -39 -5 3 -7 -1 -4 -9 4 -11 -4 -17 -30 -22 -20
-3 -36 -9 -36 -13 0 -3 -13 -12 -29 -19 -16 -7 -41 -24 -55 -37 -15 -14 -29
-25 -31 -25 -2 0 -32 -27 -67 -60 -35 -33 -101 -95 -148 -138 -46 -42 -117
-110 -157 -150 -39 -41 -77 -71 -82 -67 -6 3 -11 0 -11 -7 0 -7 -9 -19 -20
-26 -11 -7 -20 -19 -20 -27 0 -8 -4 -15 -9 -15 -17 0 -81 -74 -92 -107 -7 -21
-15 -30 -25 -26 -9 3 -14 -2 -14 -16 0 -12 -5 -21 -11 -21 -5 0 -7 -5 -4 -10
3 -6 -21 -43 -54 -84 -34 -41 -61 -77 -61 -79 0 -6 -77 -93 -128 -144 -18 -18
-50 -67 -71 -108 -21 -41 -41 -71 -45 -68 -3 4 -6 2 -6 -4 0 -6 -16 -30 -35
-54 -19 -24 -35 -52 -35 -61 0 -9 -4 -20 -10 -23 -5 -3 -10 -17 -10 -31 0 -13
-4 -24 -10 -24 -5 0 -10 -8 -10 -18 0 -10 -16 -45 -36 -78 -20 -32 -48 -79
-62 -104 -14 -25 -29 -47 -32 -50 -3 -3 -19 -34 -34 -70 -34 -78 -103 -198
-126 -220 -3 -3 -13 -17 -23 -32 -10 -16 -24 -28 -32 -28 -8 0 -19 -8 -24 -17
-11 -20 -118 -79 -127 -70 -12 11 76 284 134 417 65 149 114 243 241 455 85
143 261 406 315 470 23 28 82 104 131 170 97 131 559 608 735 759 52 44 115
100 140 123 25 24 49 43 53 43 5 0 5 9 2 20 -9 27 3 60 21 60 8 0 14 7 14 16
0 20 28 43 53 44 33 0 85 31 139 81 30 28 69 54 91 60 20 5 37 14 37 20 0 5
11 14 24 19 47 17 42 120 -5 105 -27 -9 -35 16 -11 34 15 11 20 23 16 39 -5
18 -3 21 10 16 9 -3 16 -10 16 -15 0 -5 5 -9 11 -9 6 0 8 8 5 18 -4 10 1 27 9
38 13 16 16 17 25 4 7 -12 10 -8 10 18 0 32 21 45 35 22 10 -17 26 0 20 21 -5
15 -2 19 17 17 17 -2 24 3 26 19 3 19 6 21 23 13 15 -9 23 -7 36 5 9 9 27 21
40 26 12 4 23 15 23 23 0 11 9 14 38 10 20 -2 31 -2 25 2 -14 6 -18 34 -5 34
4 0 13 -5 19 -11 9 -9 24 -4 60 19 41 27 72 42 188 92 11 5 51 23 90 40 38 17
75 28 82 26 7 -3 13 -1 13 4 0 6 8 10 18 10 9 0 44 14 77 30 33 17 64 30 69
30 5 0 17 6 25 13 9 8 39 22 66 32 28 10 113 49 191 87 78 38 159 71 180 74
29 4 35 3 24 -5 -20 -14 -5 -13 55 3 54 15 71 18 64 12z m1256 -21 c-34 -13
-87 -23 -79 -16 5 5 18 11 29 14 23 6 65 7 50 2z m-205 -55 c-8 -5 -19 -10
-25 -10 -5 0 -3 5 5 10 8 5 20 10 25 10 6 0 3 -5 -5 -10z m4397 -97 c-9 -9
-20 -13 -24 -9 -4 4 -1 11 7 16 25 16 35 11 17 -7z m-37 -17 c0 -2 -9 -6 -20
-9 -11 -3 -18 -1 -14 4 5 9 34 13 34 5z m-103 -41 c-46 -24 -89 -34 -73 -17 8
8 95 40 111 41 6 0 -12 -11 -38 -24z m954 -42 c-29 -28 -70 -84 -97 -133 -93
-169 -168 -307 -234 -435 -67 -129 -199 -380 -267 -505 -20 -36 -67 -123 -105
-195 -39 -71 -88 -164 -111 -205 -22 -41 -50 -93 -60 -115 -11 -22 -31 -57
-45 -77 -32 -49 -29 -68 42 -244 30 -77 66 -173 79 -214 25 -76 52 -149 68
-185 5 -11 27 -76 50 -145 22 -69 47 -138 54 -155 8 -16 39 -106 70 -198 59
-175 60 -197 14 -197 -19 0 -235 -83 -327 -126 -36 -17 -52 -29 -49 -39 5 -12
-31 -45 -51 -45 -9 0 -36 74 -167 455 -15 44 -45 132 -67 195 -22 63 -43 133
-47 154 -6 35 -31 65 -31 37 0 -11 -43 -102 -76 -161 -11 -19 -31 -62 -44 -95
-33 -83 -141 -313 -291 -620 -32 -66 -64 -144 -70 -173 -11 -44 -16 -53 -33
-51 -12 2 -48 -7 -81 -20 -33 -13 -98 -34 -145 -47 -81 -24 -195 -83 -250
-131 l-25 -21 29 5 c48 10 22 -14 -65 -57 -43 -22 -79 -35 -79 -29 0 6 12 30
26 53 86 138 162 277 254 466 58 118 166 336 241 485 232 458 285 565 349 700
l62 130 -17 45 c-50 131 -90 247 -122 355 -29 102 -142 418 -215 603 -11 29
-38 82 -60 118 -22 36 -36 70 -31 74 4 5 99 42 210 84 111 41 220 84 242 96
35 18 71 26 71 17 0 -2 12 -37 26 -78 67 -190 158 -453 186 -539 33 -103 48
-130 48 -87 0 16 10 36 25 49 33 28 124 188 184 324 27 60 90 189 140 287 98
192 151 311 151 339 0 26 26 40 235 123 105 42 206 83 225 92 102 48 188 82
208 82 20 1 17 -5 -27 -46z m-1051 7 c-8 -5 -19 -10 -25 -10 -5 0 -3 5 5 10 8
5 20 10 25 10 6 0 3 -5 -5 -10z m-263 -106 c-3 -3 -12 -4 -19 -1 -8 3 -5 6 6
6 11 1 17 -2 13 -5z m-237 -88 c0 -2 -13 -9 -30 -15 -16 -5 -30 -6 -30 -1 0 5
8 11 18 13 24 7 42 8 42 3z m-5703 -42 c-3 -3 -12 -4 -19 -1 -8 3 -5 6 6 6 11
1 17 -2 13 -5z m5153 -183 c0 -5 -11 -12 -24 -15 -13 -3 -32 -8 -43 -12 -10
-3 -2 4 17 15 39 23 50 25 50 12z m2390 -48 c-11 -17 -11 -17 -6 0 3 10 6 24
7 30 0 9 2 9 5 0 3 -7 0 -20 -6 -30z m-18 -45 c-7 -7 -12 -8 -12 -2 0 14 12
26 19 19 2 -3 -1 -11 -7 -17z m-8182 -43 c0 -5 -5 -3 -10 5 -5 8 -10 20 -10
25 0 6 5 3 10 -5 5 -8 10 -19 10 -25z m-30 0 c0 -9 -8 -18 -17 -21 -10 -3 -25
-9 -34 -14 -17 -9 -29 -4 -29 12 0 4 9 8 20 8 11 0 23 7 26 15 8 20 34 19 34
0z m5420 -35 c-20 -13 -33 -13 -25 0 3 6 14 10 23 10 15 0 15 -2 2 -10z m-124
-51 c-21 -11 -45 -18 -54 -16 -11 3 -5 7 16 12 18 4 35 12 38 16 3 5 13 9 22
9 9 0 -1 -9 -22 -21z m-4073 -119 c-7 -69 7 -88 58 -85 15 1 26 -2 23 -7 -3
-4 5 -8 17 -8 16 0 -8 -23 -86 -82 -59 -46 -124 -94 -145 -108 -21 -14 -48
-32 -61 -41 -66 -45 -280 -180 -293 -185 -24 -9 -19 12 8 34 24 19 30 51 11
64 -26 19 -137 -9 -161 -41 -8 -10 -30 -14 -70 -14 -91 0 -122 25 -92 73 23
36 -2 34 -41 -4 -22 -21 -44 -35 -50 -32 -6 4 -11 3 -11 -3 0 -6 -9 -15 -20
-21 -11 -6 -20 -9 -20 -7 0 17 305 296 393 360 32 23 75 54 94 70 20 15 42 27
49 27 8 0 14 5 14 10 0 6 5 10 12 10 9 0 9 -3 0 -12 -7 -7 -12 -18 -12 -25 0
-20 37 -16 52 6 10 14 32 21 83 26 39 4 75 11 80 15 13 11 158 48 167 44 3 -2
4 -31 1 -64z m-1393 45 c0 -8 -4 -15 -9 -15 -5 0 -11 7 -15 15 -3 9 0 15 9 15
8 0 15 -7 15 -15z m-43 -47 c-3 -8 -6 -5 -6 6 -1 11 2 17 5 13 3 -3 4 -12 1
-19z m-41 -43 c-3 -9 -11 -13 -16 -10 -8 5 -7 11 1 21 14 18 24 11 15 -11z
m2201 11 c-7 -8 -30 -23 -49 -33 -36 -19 -98 -68 -98 -76 0 -3 13 -7 29 -9 20
-3 27 0 24 8 -6 17 16 29 30 15 16 -16 27 -14 27 4 0 12 4 14 16 7 9 -5 26 -7
38 -4 19 4 19 3 -4 -15 -14 -11 -81 -55 -150 -99 -69 -43 -150 -98 -180 -122
-49 -39 -77 -63 -188 -160 -45 -40 -220 -157 -280 -187 -27 -14 -77 -45 -110
-69 -33 -25 -80 -57 -104 -72 -61 -39 -169 -129 -269 -226 -47 -46 -117 -110
-155 -142 -38 -33 -141 -132 -229 -220 -110 -110 -166 -160 -178 -158 -15 3
-18 -1 -13 -20 3 -13 3 -17 0 -11 -4 9 -11 10 -23 4 -12 -7 -20 -5 -28 8 -9
15 -4 25 33 62 24 24 43 48 44 52 0 5 14 20 30 34 17 13 30 30 30 35 0 17 67
94 175 203 88 87 172 165 179 165 5 0 246 241 246 246 0 2 -15 -3 -32 -12 -39
-19 -33 -13 47 51 151 121 225 187 220 196 -4 5 1 12 9 15 9 3 16 14 16 24 0
11 5 22 10 25 10 6 50 87 50 102 0 14 73 73 91 73 10 0 19 4 21 9 4 12 169 34
191 26 16 -7 213 93 328 166 42 27 80 49 85 49 5 0 34 16 64 35 58 36 81 45
57 21z m4013 -11 c-7 -8 -17 -12 -22 -9 -5 3 -1 12 9 19 22 17 30 11 13 -10z
m-50 -12 c0 -4 -11 -17 -23 -28 -46 -39 -75 -129 -114 -345 -7 -41 -13 -48
-58 -72 -28 -15 -86 -39 -129 -54 -44 -14 -136 -50 -205 -79 -69 -29 -157 -65
-196 -80 -38 -15 -74 -31 -80 -35 -5 -3 -36 -15 -68 -25 -42 -14 -59 -25 -61
-40 -2 -11 -11 -72 -20 -135 -9 -63 -32 -217 -51 -342 -38 -249 -39 -258 -26
-258 5 0 38 13 73 29 68 32 347 141 413 161 22 7 84 33 138 57 54 25 101 43
103 40 3 -3 -15 -31 -40 -64 -52 -67 -79 -148 -106 -316 -9 -59 -21 -112 -26
-117 -5 -4 -79 -32 -164 -61 -187 -63 -438 -163 -457 -181 -16 -17 -33 -102
-73 -378 -17 -118 -40 -264 -50 -325 -10 -60 -17 -111 -15 -113 4 -4 110 32
170 58 22 9 94 36 160 60 66 23 152 55 190 71 209 86 347 130 360 117 7 -7
-38 -83 -55 -93 -17 -11 -40 -74 -76 -215 -20 -74 -41 -144 -48 -155 -8 -12
-52 -34 -107 -54 -52 -19 -186 -69 -299 -112 -113 -42 -258 -94 -324 -114 -65
-21 -149 -53 -185 -72 -60 -31 -182 -82 -237 -97 -25 -7 -60 -43 -51 -52 3 -3
35 6 71 20 35 14 68 26 73 26 5 0 55 18 112 40 108 42 164 55 71 16 -30 -12
-71 -30 -90 -39 -19 -9 -66 -28 -105 -42 -38 -14 -103 -44 -144 -66 l-73 -39
5 57 c4 52 34 226 96 568 11 61 29 182 41 270 12 88 30 210 40 270 30 173 57
337 84 505 13 85 36 220 50 300 72 405 141 864 148 990 2 36 7 46 23 48 25 5
232 85 380 147 61 26 151 62 200 80 50 18 144 54 210 80 66 26 179 70 250 97
72 27 157 61 190 74 59 23 105 31 105 17z m-1455 -143 c-3 -5 -14 -10 -23 -9
-14 0 -13 2 3 9 27 11 27 11 20 0z m-104 -46 c-30 -13 -56 -22 -59 -19 -6 6
81 43 103 44 6 0 -14 -11 -44 -25z m-4168 -64 c3 -11 1 -17 -4 -14 -5 3 -16
-2 -25 -10 -9 -9 -21 -13 -27 -9 -6 4 -3 9 10 14 11 4 23 14 26 23 8 21 14 20
20 -4z m47 16 c0 -3 -4 -8 -10 -11 -5 -3 -10 -1 -10 4 0 6 5 11 10 11 6 0 10
-2 10 -4z m-230 -181 c0 -10 -78 -85 -87 -85 -5 0 -20 -11 -33 -25 -13 -14
-28 -25 -34 -25 -6 1 -1 9 12 19 12 11 22 23 22 28 0 12 53 58 62 55 4 -1 12
7 18 18 9 18 40 29 40 15z m705 -65 c-3 -5 -11 -10 -16 -10 -6 0 -7 5 -4 10 3
6 11 10 16 10 6 0 7 -4 4 -10z m-539 -68 c-17 -16 -18 -16 -5 5 7 12 15 20 18
17 3 -2 -3 -12 -13 -22z m4264 -6 c0 -3 -23 -33 -51 -68 -73 -90 -103 -170
-124 -325 -4 -28 -12 -58 -18 -67 -7 -8 -59 -33 -117 -56 -58 -22 -125 -51
-150 -63 -25 -12 -83 -35 -131 -51 l-85 -29 -12 -98 c-6 -53 -18 -126 -26
-161 -25 -106 -76 -423 -101 -623 -9 -71 -27 -184 -40 -250 -13 -66 -31 -178
-40 -250 -20 -166 -39 -291 -75 -485 -15 -85 -36 -211 -45 -280 -48 -364 -47
-359 -84 -360 -12 0 -12 3 1 18 10 11 19 60 27 152 14 159 36 333 56 445 21
116 53 348 61 435 3 41 15 116 26 165 11 50 24 110 28 136 5 25 13 64 20 87
15 57 7 66 -38 43 -20 -10 -73 -31 -117 -46 -100 -33 -198 -76 -207 -90 -4 -5
-8 -41 -9 -80 0 -38 -5 -92 -9 -120 -17 -94 -38 -220 -54 -335 -31 -217 -47
-325 -62 -410 -8 -47 -16 -103 -18 -126 -2 -23 -6 -45 -9 -51 -5 -8 -18 -93
-44 -295 -3 -24 -1 -38 6 -38 6 0 11 6 11 14 0 20 51 71 58 59 8 -12 46 0 57
17 13 20 -4 24 -25 5 -11 -10 -22 -16 -25 -13 -3 2 -6 46 -7 96 -1 51 -5 86
-10 80 -5 -8 -8 -1 -8 19 0 17 4 33 10 35 5 2 10 17 12 35 1 17 7 31 12 30 5
-1 16 10 23 26 16 30 50 39 38 10 -15 -35 -17 -63 -6 -63 6 0 11 -8 11 -17 0
-14 2 -15 13 -4 10 11 10 14 0 18 -14 5 -18 53 -5 53 15 0 38 -34 40 -58 0
-12 8 -29 16 -38 9 -8 16 -20 16 -25 0 -5 18 -9 39 -9 22 0 42 -5 44 -12 3 -7
6 1 7 17 l2 30 10 -29 c8 -21 8 -34 -1 -48 -6 -10 -11 -29 -11 -43 0 -17 -6
-25 -17 -25 -10 0 -30 -12 -45 -25 -30 -26 -36 -40 -15 -32 8 3 20 1 28 -4 11
-7 9 -9 -8 -9 -12 0 -33 -5 -47 -11 -20 -10 -28 -9 -42 5 -9 9 -19 14 -23 10
-3 -4 0 -9 7 -11 21 -8 13 -25 -8 -18 -16 5 -20 2 -20 -14 0 -14 -9 -23 -27
-27 -15 -4 -36 -16 -47 -26 -20 -18 -20 -18 2 -18 12 0 38 9 59 19 42 21 90
43 144 64 39 16 139 32 139 23 0 -6 -15 -13 -180 -81 -58 -24 -154 -64 -215
-89 -60 -25 -113 -46 -118 -46 -9 0 -2 61 29 240 29 165 66 388 94 575 12 77
35 221 50 320 16 99 40 254 55 345 14 91 36 224 49 295 13 72 32 182 41 245 9
63 25 169 35 235 10 66 22 147 26 180 4 33 14 70 22 83 8 12 12 25 9 29 -4 3
-60 -16 -124 -42 -65 -26 -156 -62 -203 -79 -107 -39 -108 -40 -132 -93 -39
-89 -43 -32 -11 172 24 151 21 197 -11 236 -29 34 -23 49 20 49 11 0 63 18
115 41 52 22 146 60 209 84 201 76 469 180 665 258 193 77 578 225 613 236 1
1 2 -1 2 -3z m-1081 -30 c-2 -2 -15 -9 -29 -15 -24 -11 -24 -11 -6 3 16 13 49
24 35 12z m3862 -43 c-8 -15 -10 -15 -11 -2 0 17 10 32 18 25 2 -3 -1 -13 -7
-23z m-3926 8 c-14 -12 -243 -91 -263 -90 -18 0 -3 7 148 63 95 35 133 44 115
27z m4542 -27 c-3 -3 -12 -4 -19 -1 -8 3 -5 6 6 6 11 1 17 -2 13 -5z m-54 -21
c-7 -2 -21 -2 -30 0 -10 3 -4 5 12 5 17 0 24 -2 18 -5z m217 -2 c-14 -4 -43
-11 -65 -14 l-40 -6 40 14 c22 7 51 13 65 13 l25 0 -25 -7z m-150 -41 c-20
-13 -33 -13 -25 0 3 6 14 10 23 10 15 0 15 -2 2 -10z m-4923 -46 c-3 -3 -12
-4 -19 -1 -8 3 -5 6 6 6 11 1 17 -2 13 -5z m-47 -9 c0 -7 -98 -55 -112 -55 -7
1 12 14 42 29 57 30 70 34 70 26z m-190 -82 c-8 -3 -17 -9 -20 -12 -3 -4 -39
-20 -80 -36 -41 -16 -78 -33 -81 -38 -4 -5 -10 -4 -13 2 -4 6 4 16 21 22 15 6
51 19 78 30 28 10 57 24 65 29 8 5 22 9 30 9 13 -1 13 -1 0 -6z m-240 -97 c0
-2 -7 -7 -16 -10 -8 -3 -12 -2 -9 4 6 10 25 14 25 6z m-90 -36 c0 -5 -7 -10
-15 -10 -8 0 -15 -4 -15 -8 0 -12 -47 -32 -73 -31 -15 0 -2 10 38 29 71 34 65
32 65 20z m-130 -60 c0 -6 -8 -13 -17 -16 -10 -3 -27 -10 -38 -16 -11 -6 -33
-15 -50 -19 -39 -10 -114 -37 -140 -50 -11 -5 -45 -16 -75 -24 -30 -8 -56 -19
-58 -25 -4 -12 -32 -13 -32 -1 0 5 26 18 58 29 58 21 155 59 182 72 9 4 31 11
50 15 19 4 51 16 70 26 40 22 50 23 50 9z m4885 -47 c3 -14 19 -54 34 -87 29
-62 61 -176 60 -212 0 -10 -9 6 -20 36 -11 30 -24 64 -29 75 -5 11 -16 43 -25
70 -9 28 -21 57 -25 66 -15 28 -24 93 -12 86 5 -4 13 -19 17 -34z m1155 -78
c17 -39 38 -111 50 -170 6 -33 18 -86 27 -119 8 -32 16 -95 19 -140 9 -205 15
-279 30 -393 15 -112 15 -125 0 -154 -9 -18 -16 -44 -16 -58 0 -14 -4 -32 -8
-39 -18 -27 -34 48 -48 218 -8 96 -18 208 -24 248 -5 40 -10 121 -10 180 0 60
-9 158 -20 224 -22 131 -37 347 -19 268 6 -25 15 -54 19 -65z m-5915 50 c-35
-16 -64 -20 -49 -6 10 10 39 18 64 19 8 0 2 -6 -15 -13z m5272 -57 c-3 -8 -6
-5 -6 6 -1 11 2 17 5 13 3 -3 4 -12 1 -19z m10 -40 c-3 -8 -6 -5 -6 6 -1 11 2
17 5 13 3 -3 4 -12 1 -19z m-5837 2 c0 -5 -18 -14 -41 -20 -22 -6 -43 -18 -46
-26 -6 -17 -71 -46 -84 -38 -13 7 -121 -45 -114 -55 8 -14 -17 -29 -60 -37
-33 -6 -37 -8 -20 -16 15 -6 12 -7 -12 -5 -18 2 -33 0 -33 -3 0 -4 -18 -10
-39 -14 -34 -5 -40 -10 -43 -34 -2 -19 -9 -28 -24 -30 -25 -4 -41 -42 -18 -42
8 0 14 7 14 14 0 11 11 15 39 13 22 0 37 -5 35 -9 -3 -4 -10 -8 -16 -8 -6 0
-44 -16 -84 -35 -40 -19 -80 -35 -88 -35 -9 0 -16 -4 -16 -10 0 -5 -5 -10 -11
-10 -12 0 -54 -17 -146 -61 -34 -16 -65 -29 -70 -29 -4 0 -48 -20 -98 -45 -49
-25 -119 -56 -155 -69 -65 -24 -286 -116 -370 -154 -67 -31 -320 -133 -445
-181 -60 -23 -157 -62 -215 -86 -58 -24 -206 -84 -330 -134 -124 -50 -263
-106 -310 -126 -47 -20 -101 -42 -120 -49 -19 -8 -55 -22 -80 -33 -25 -11 -97
-43 -160 -71 -63 -27 -185 -81 -270 -120 -151 -68 -341 -148 -565 -239 -60
-24 -146 -60 -190 -78 -44 -18 -145 -59 -225 -90 -227 -89 -374 -153 -378
-163 -2 -6 19 -18 45 -28 26 -10 150 -72 275 -137 l228 -120 0 -134 c0 -74 7
-212 15 -306 25 -295 64 -802 80 -1037 41 -590 40 -574 21 -786 -9 -109 -23
-237 -31 -284 -8 -47 -16 -105 -19 -129 -4 -43 -4 -43 25 -37 16 3 138 48 271
101 406 160 439 171 553 181 123 11 97 -11 -102 -85 -43 -17 -115 -46 -161
-65 -46 -20 -89 -36 -95 -36 -7 0 -93 -40 -192 -89 -429 -211 -597 -291 -612
-291 -3 0 -3 12 0 27 8 47 102 437 151 628 68 269 83 513 51 830 -31 298 -64
642 -90 945 -9 96 -20 213 -25 260 -6 47 -10 108 -10 136 0 29 -5 56 -12 61
-12 10 -221 121 -318 169 -58 29 -241 104 -349 143 -91 33 -174 78 -167 90 3
4 24 13 48 20 95 28 341 125 713 281 116 49 276 113 356 144 80 30 186 72 235
94 49 22 100 43 114 47 36 10 351 146 375 161 11 7 70 34 130 60 61 26 173 74
250 106 77 33 185 78 240 100 55 21 145 59 200 83 55 23 111 46 125 50 39 11
266 100 490 193 113 46 250 102 305 124 55 21 124 50 154 64 29 14 81 36 115
49 66 25 213 87 261 110 40 19 246 102 315 126 30 11 75 29 99 41 25 11 81 33
125 50 45 16 116 45 158 64 43 19 115 48 160 64 46 16 119 45 163 64 81 34
125 44 125 26z m5 -126 c-44 -17 -103 -30 -95 -21 10 11 84 35 110 35 19 1 16
-2 -15 -14z m-3575 -96 c-46 -51 -90 -104 -98 -118 -27 -43 -105 -140 -109
-137 -7 8 89 155 158 242 60 76 113 121 128 109 2 -1 -34 -45 -79 -96z m3438
51 c-3 -10 -71 -38 -92 -39 -17 0 5 15 47 32 51 21 49 20 45 7z m859 -10 c24
-12 51 -32 60 -45 22 -34 18 -155 -11 -324 -58 -331 -67 -385 -91 -550 -33
-221 -53 -306 -82 -350 -13 -19 -23 -40 -23 -47 0 -6 -5 -15 -10 -18 -7 -4 -9
2 -4 19 4 17 2 26 -6 26 -7 0 -112 -40 -234 -89 -330 -133 -388 -159 -457
-208 -26 -18 -52 -33 -60 -33 -15 0 -366 -161 -426 -196 -36 -21 -43 -30 -43
-57 0 -18 -12 -108 -25 -202 -14 -93 -30 -206 -36 -250 -5 -44 -14 -93 -19
-110 -4 -16 -11 -59 -15 -95 -6 -58 -26 -181 -95 -566 -11 -62 -20 -128 -20
-149 0 -20 -5 -45 -11 -57 -15 -27 -4 -34 25 -15 24 16 206 87 269 106 18 5
41 12 51 17 13 5 17 4 13 -4 -4 -6 -29 -18 -55 -28 -26 -10 -103 -44 -171 -76
-68 -32 -126 -58 -130 -58 -3 0 -23 -11 -43 -25 -21 -14 -39 -21 -43 -15 -8
14 11 156 56 410 35 195 60 349 110 680 12 83 32 202 54 325 8 44 21 136 29
205 9 69 27 180 40 245 13 66 32 176 41 245 9 69 37 229 62 355 25 133 47 274
50 336 l6 105 -43 37 c-24 20 -42 38 -39 39 2 2 56 20 119 41 63 21 162 58
220 82 210 87 667 269 730 291 88 31 197 32 257 3z m-1022 -65 c-32 -16 -52
-21 -59 -14 -6 6 1 12 23 16 20 4 36 14 38 25 4 15 9 17 26 7 20 -10 18 -12
-28 -34z m-35 26 c0 -5 -4 -10 -9 -10 -6 0 -13 5 -16 10 -3 6 1 10 9 10 9 0
16 -4 16 -10z m-63 -66 c-3 -3 -12 -4 -19 -1 -8 3 -5 6 6 6 11 1 17 -2 13 -5z
m6443 -286 c0 -10 5 -18 10 -18 6 0 10 -7 10 -17 0 -19 30 -72 107 -191 72
-111 76 -124 29 -88 -31 23 -40 26 -47 15 -5 -9 -6 2 -3 26 4 29 3 36 -5 25
-5 -8 -11 -12 -13 -10 -12 17 -68 149 -68 161 0 5 -9 29 -20 51 -21 43 -29
107 -10 78 5 -8 10 -23 10 -32z m-466 -83 c3 -8 1 -15 -4 -15 -6 0 -10 7 -10
15 0 8 2 15 4 15 2 0 6 -7 10 -15z m-6514 -200 c19 -10 38 -23 42 -29 4 -6 8
-57 8 -113 0 -77 -8 -140 -34 -265 -19 -89 -46 -237 -61 -328 -14 -91 -39
-239 -55 -330 -48 -277 -70 -412 -90 -553 -5 -38 -12 -72 -15 -76 -2 -5 -9
-37 -14 -72 -5 -35 -18 -113 -29 -174 -11 -60 -27 -159 -37 -220 -32 -211 -59
-340 -77 -370 -23 -38 -24 -17 -4 70 7 33 19 96 26 140 6 44 23 139 37 210 14
72 29 148 33 170 4 22 19 96 33 165 14 69 29 154 32 190 4 36 13 100 22 143 8
43 13 80 11 82 -2 2 -17 -3 -33 -10 -17 -8 -77 -32 -135 -54 -198 -74 -186
-65 -199 -146 -5 -38 -15 -101 -21 -140 -6 -38 -20 -133 -30 -210 -10 -77 -30
-216 -44 -310 -14 -93 -31 -208 -37 -254 -17 -113 -11 -108 -207 -166 -45 -14
-128 -43 -183 -65 -168 -67 -170 -65 -140 143 21 143 42 260 90 492 11 55 26
125 32 155 15 75 17 80 18 43 1 -18 -6 -68 -14 -110 -8 -43 -22 -123 -30 -178
-9 -55 -20 -120 -25 -145 -19 -91 -39 -217 -44 -287 -6 -78 1 -92 37 -76 12 6
36 15 52 21 17 6 64 24 105 41 41 16 107 39 147 51 47 13 74 26 77 38 8 26 53
307 91 577 18 132 45 301 58 375 14 74 32 185 42 245 9 61 23 148 31 195 56
315 76 437 88 525 7 55 17 109 21 119 8 17 5 19 -23 13 -18 -4 -83 -28 -144
-55 -62 -27 -135 -57 -163 -66 -80 -26 -115 -51 -115 -83 0 -16 -9 -80 -21
-143 -11 -63 -36 -218 -55 -345 -19 -126 -45 -295 -57 -375 l-22 -144 -40 -8
c-40 -9 -247 -88 -288 -110 -49 -28 -55 -38 -62 -111 -4 -40 -11 -92 -17 -117
-11 -52 -30 -184 -58 -425 -20 -167 -27 -213 -56 -368 -20 -110 -18 -170 7
-220 25 -48 50 -71 61 -55 4 8 19 5 44 -7 33 -15 36 -19 19 -25 -10 -4 -14 -9
-9 -11 8 -4 122 -3 179 2 31 2 168 50 185 64 17 14 211 77 218 71 5 -6 -73
-41 -193 -86 -55 -20 -132 -51 -171 -68 -194 -86 -319 -81 -384 13 -59 86 -63
182 -17 425 14 74 33 200 42 280 9 80 30 226 47 325 16 99 43 268 59 375 16
107 40 254 53 325 14 72 27 155 31 185 4 30 15 107 26 170 11 63 31 177 44
252 33 193 61 249 191 385 83 85 181 153 278 189 39 15 112 45 161 67 50 21
121 50 159 64 38 14 99 39 135 56 124 57 199 78 276 74 41 -2 84 -11 105 -22z
m6645 -49 c10 -25 15 -50 13 -57 -6 -18 -39 38 -45 78 -8 49 10 36 32 -21z
m569 -53 c8 -19 2 -16 -25 13 -23 25 -23 26 -2 13 13 -7 25 -19 27 -26z m283
-440 c-6 -285 -16 -385 -52 -503 -7 -25 -21 -80 -31 -122 -9 -43 -21 -78 -26
-78 -5 0 -7 -4 -4 -8 3 -5 -3 -42 -13 -83 -11 -41 -22 -87 -26 -103 -5 -23 -8
-27 -16 -15 -13 20 -11 50 5 81 29 55 40 136 28 196 -13 68 -11 170 6 232 6
25 23 113 37 195 15 83 33 178 41 212 8 34 14 96 14 137 0 41 5 78 10 81 6 3
10 19 10 36 0 16 5 29 12 29 8 0 10 -74 5 -287z m-132 177 c-3 -5 -12 -10 -18
-10 -7 0 -50 -16 -96 -35 -46 -20 -86 -34 -88 -32 -4 5 119 66 156 77 37 12
53 12 46 0z m-8725 -99 c0 -5 -7 -15 -16 -22 -26 -22 -113 -160 -131 -209 -9
-25 -36 -94 -61 -155 -49 -121 -171 -478 -282 -825 -39 -124 -80 -250 -90
-280 -29 -88 -48 -162 -54 -205 -3 -22 -10 -58 -15 -80 -13 -54 -3 101 10 164
11 51 6 60 -23 42 -11 -7 -72 -33 -136 -58 -63 -25 -123 -50 -133 -56 -11 -7
-21 -35 -29 -86 -15 -97 -49 -231 -89 -350 -17 -52 -43 -142 -57 -200 -28
-118 -52 -194 -91 -285 -54 -128 -63 -143 -86 -142 -22 1 -22 1 -25 241 -1
132 1 341 6 465 4 137 4 228 -2 232 -5 3 -23 0 -40 -7 -122 -52 -207 -85 -221
-85 -9 0 -14 -4 -11 -9 3 -5 15 -7 27 -4 22 6 83 -11 137 -39 19 -9 40 -14 47
-12 25 10 34 -32 30 -137 -9 -240 -7 -577 4 -597 6 -12 11 -33 11 -47 0 -20 4
-26 15 -22 18 7 30 -9 13 -17 -7 -3 1 -5 17 -4 72 3 113 -2 112 -14 -1 -34 4
-48 18 -48 8 0 15 5 15 10 0 6 9 10 20 10 27 0 35 -40 16 -82 -21 -44 -55
-183 -56 -225 -1 -50 18 -19 29 49 13 78 34 156 56 203 8 17 21 50 29 75 8 25
36 104 61 175 66 186 80 228 111 340 15 55 33 109 40 120 7 11 22 58 33 105
18 69 69 259 87 319 3 8 7 11 11 8 12 -13 -77 -398 -106 -455 -10 -20 -29 -77
-41 -127 -12 -49 -33 -121 -47 -160 -13 -38 -51 -149 -84 -245 -86 -249 -107
-316 -115 -369 -8 -59 -20 -80 -42 -79 -9 0 -69 -20 -132 -45 -215 -85 -279
-120 -272 -148 2 -10 -10 -25 -31 -38 -66 -41 -63 -51 -70 268 -4 160 -11 361
-17 448 -6 87 -17 322 -26 523 -8 201 -19 437 -24 525 -5 88 -12 294 -16 458
-5 201 -11 303 -19 314 -6 8 -43 32 -81 53 -38 20 -69 43 -69 51 0 9 66 37
185 80 102 37 231 87 288 113 120 54 137 57 128 21 -4 -14 -2 -154 4 -313 6
-158 10 -557 10 -887 0 -607 6 -829 21 -819 5 3 9 16 9 29 0 13 4 26 8 29 5 3
17 40 26 83 9 43 24 103 32 133 8 30 57 226 109 436 52 210 104 408 116 440
11 32 33 111 49 174 43 173 130 460 210 695 39 116 77 236 83 267 7 31 15 60
19 63 4 4 51 25 105 46 54 22 107 44 118 49 11 5 54 23 95 39 41 17 113 46
160 65 88 37 110 42 110 27z m3703 -51 c-3 -11 -7 -20 -9 -20 -2 0 -4 9 -4 20
0 11 4 20 9 20 5 0 7 -9 4 -20z m4843 -49 c-4 -5 -25 -12 -47 -16 -23 -4 -91
-24 -153 -45 -61 -21 -120 -41 -131 -44 -11 -4 0 4 25 18 25 14 83 37 130 51
47 15 96 30 110 35 34 12 72 12 66 1z m-6116 -251 c0 -5 -4 -10 -10 -10 -5 0
-10 5 -10 10 0 6 5 10 10 10 6 0 10 -4 10 -10z m-90 -37 c-8 -4 -21 -14 -28
-25 -17 -24 -32 -23 -32 1 0 18 19 27 60 29 13 0 13 0 0 -5z m332 -28 c9 -4
12 -19 9 -51 -2 -25 2 -64 8 -87 6 -23 20 -109 31 -192 11 -82 24 -172 29
-200 6 -27 19 -102 30 -165 56 -319 70 -381 105 -461 6 -13 -6 -17 -66 -27
-73 -11 -257 -64 -291 -83 -19 -11 -41 -3 -32 11 3 5 0 20 -7 32 -15 26 -17
41 -18 121 -1 32 3 63 8 70 7 8 6 18 -4 32 -12 16 -16 17 -23 6 -6 -8 -5 -24
1 -37 8 -17 8 -27 0 -37 -8 -9 -8 -25 -3 -48 5 -19 14 -65 20 -104 17 -96 18
-100 35 -86 14 12 216 71 239 71 20 -1 -92 -57 -173 -86 -41 -15 -88 -38 -103
-51 -31 -25 -43 -28 -52 -13 -3 5 -17 85 -31 177 -14 92 -35 231 -48 308 -13
77 -27 163 -31 190 -3 28 -11 66 -16 85 -5 19 -18 76 -29 125 -12 50 -26 102
-32 118 -11 27 -24 35 -30 17 -4 -12 -109 -50 -137 -50 -16 0 -21 -10 -29 -52
l-10 -53 -1 52 c0 28 3 63 8 76 8 19 6 27 -5 31 -19 7 -29 -18 -48 -129 -9
-49 -28 -153 -42 -230 -14 -77 -34 -196 -45 -265 -39 -260 -49 -318 -75 -440
-14 -69 -28 -135 -30 -147 -3 -13 -9 -23 -14 -23 -16 0 -1 147 30 290 10 47
23 126 30 175 6 50 18 122 25 160 34 170 56 287 70 385 19 138 51 241 75 247
10 3 17 10 14 17 -3 7 5 12 18 13 12 1 33 10 47 20 14 10 47 29 74 42 26 14
61 43 80 67 17 24 35 44 38 44 4 0 9 -20 10 -44 2 -24 1 -42 -2 -40 -4 2 -9
-2 -12 -10 -3 -8 5 -19 18 -26 24 -13 41 -58 49 -129 2 -24 10 -49 16 -55 10
-8 11 -2 5 29 -12 66 -15 115 -7 115 4 0 8 26 10 57 2 43 8 60 23 71 23 16 25
32 4 32 -11 0 -15 11 -15 40 0 39 1 40 35 40 31 0 35 3 35 25 0 22 4 25 39 25
33 0 40 -4 43 -22 4 -28 45 -38 54 -14 13 33 21 14 27 -59 4 -42 11 -85 17
-95 6 -11 13 -47 16 -82 8 -71 18 -98 39 -98 11 0 13 5 6 18 -15 27 -44 190
-49 265 -5 91 2 106 40 92z m5979 -356 c-5 -13 -10 -19 -10 -12 -1 15 10 45
15 40 3 -2 0 -15 -5 -28z m-4814 -91 c-3 -8 -6 -5 -6 6 -1 11 2 17 5 13 3 -3
4 -12 1 -19z m5 -27 c7 10 8 6 3 -11 -4 -14 -8 -33 -9 -42 -5 -40 -16 -28 -15
18 0 27 3 43 6 35 5 -11 7 -11 15 0z m1464 -29 c-26 -30 -64 -123 -91 -227
-25 -94 -33 -147 -70 -425 -8 -63 -18 -128 -21 -145 -15 -79 -75 -344 -84
-375 -14 -47 -28 -136 -40 -258 -6 -55 -20 -141 -31 -189 -12 -48 -25 -123
-30 -166 -5 -43 -13 -86 -19 -95 -8 -13 -10 -8 -5 23 3 22 7 58 10 80 3 22 9
63 15 90 5 28 17 104 25 170 8 66 19 152 25 190 15 110 15 109 -17 92 -32 -17
-81 -35 -168 -64 l-60 -20 -18 -99 c-10 -54 -22 -115 -27 -134 -11 -42 -43
-248 -65 -415 -9 -66 -23 -165 -31 -220 -8 -55 -22 -165 -30 -245 -7 -80 -17
-159 -20 -176 -6 -31 -5 -32 28 -29 18 2 43 3 55 4 12 1 29 8 38 17 10 10 24
14 40 10 14 -4 25 -3 25 2 0 4 13 16 30 25 48 28 52 45 81 277 25 209 50 384
54 389 13 13 -11 -269 -35 -409 -8 -47 -13 -152 -11 -213 1 -10 6 -15 11 -12
13 8 13 -41 -1 -66 -12 -23 -99 -66 -259 -129 -58 -22 -118 -50 -133 -61 -16
-12 -31 -19 -33 -16 -3 3 5 42 16 88 12 46 26 100 30 119 5 19 18 118 29 220
12 102 36 282 55 400 19 118 42 271 51 340 8 69 17 139 20 155 4 25 -22 -36
-42 -97 -3 -10 -9 -18 -14 -18 -11 0 -23 46 -14 59 3 6 0 9 -7 6 -23 -9 -76
-97 -109 -184 -19 -47 -47 -99 -65 -118 -18 -19 -37 -48 -43 -65 -16 -44 -40
-68 -69 -68 -33 0 -100 39 -108 62 -3 10 -16 30 -30 45 -14 15 -24 38 -24 54
0 16 -4 29 -10 29 -5 0 -10 7 -10 15 0 8 -6 15 -14 15 -8 0 -17 6 -20 13 -3 6
-4 -40 -2 -103 2 -72 15 -176 35 -280 26 -138 32 -198 37 -365 4 -174 3 -197
-9 -175 -15 27 -37 132 -61 295 -9 55 -27 170 -40 255 -32 201 -54 358 -62
442 -10 108 -16 92 -78 -191 -14 -62 -27 -116 -30 -119 -12 -11 -6 123 10 225
8 58 13 108 10 111 -3 2 -11 0 -18 -5 -7 -6 -44 -18 -83 -27 -119 -29 -144
-38 -151 -55 -10 -24 -90 -486 -129 -751 -15 -93 -40 -226 -65 -345 -9 -38
-32 -193 -45 -302 -6 -43 -12 -57 -35 -73 -15 -11 -31 -20 -34 -20 -12 0 -5
61 29 235 19 99 51 275 70 390 19 116 40 237 46 270 6 33 17 101 24 150 7 50
23 144 34 210 12 66 31 181 42 255 11 74 40 234 65 355 47 232 108 671 102
738 l-3 40 108 38 c59 21 149 57 199 80 112 51 206 81 214 67 7 -12 -5 -26
-38 -42 -20 -10 -23 -19 -22 -66 0 -62 50 -687 65 -823 8 -78 60 -258 80 -281
4 -4 15 7 25 25 20 38 205 579 294 859 33 102 78 237 100 300 23 63 50 144 60
180 27 97 27 96 93 124 153 64 316 129 362 146 52 18 68 11 41 -18z m-4999
-424 c-3 -8 -6 -5 -6 6 -1 11 2 17 5 13 3 -3 4 -12 1 -19z m-1196 -378 c10 0
21 -5 24 -11 10 -14 -4 -61 -15 -54 -5 3 -13 -8 -17 -24 -5 -19 -12 -28 -19
-23 -15 10 -27 92 -13 92 6 0 8 9 4 23 -6 18 -5 20 6 10 7 -7 21 -13 30 -13z
m4093 -142 c-2 -79 -5 -256 -8 -394 -3 -209 -6 -256 -20 -280 -11 -20 -22 -89
-33 -213 l-18 -184 -60 -4 c-51 -3 -144 -15 -220 -26 -19 -3 -20 -14 -26 -163
-24 -568 -30 -786 -28 -993 2 -217 0 -235 -17 -248 -10 -7 -23 -12 -28 -10
-13 4 -10 548 9 1647 l6 365 -25 -29 c-13 -16 -29 -45 -34 -65 -6 -20 -26 -88
-45 -151 -20 -63 -50 -176 -68 -250 -56 -240 -77 -322 -87 -332 -5 -5 -7 3 -4
21 4 30 -14 52 -24 28 -3 -8 -47 -30 -97 -48 -98 -35 -126 -56 -146 -110 -7
-19 -17 -43 -22 -54 -4 -11 -18 -58 -29 -105 -40 -162 -63 -245 -96 -355 -18
-60 -44 -150 -57 -200 -14 -49 -38 -135 -55 -190 -32 -104 -86 -327 -98 -404
-7 -42 -6 -43 15 -31 38 20 46 5 10 -18 -20 -12 -41 -32 -48 -44 -11 -22 -111
-87 -111 -73 0 4 20 57 44 118 24 62 51 144 60 184 14 62 89 344 130 488 8 28
28 97 45 155 45 159 153 573 201 770 24 96 63 245 87 330 25 85 65 227 89 315
24 88 55 198 69 245 13 47 27 102 31 123 8 47 27 60 179 121 61 24 149 63 197
86 81 38 298 119 324 120 8 0 10 -43 8 -142z m2736 133 c-8 -5 -31 -11 -50
-14 l-35 -6 30 14 c33 16 81 21 55 6z m-6883 -168 c-3 -10 -5 -2 -5 17 0 19 2
27 5 18 2 -10 2 -26 0 -35z m-492 7 c-3 -5 -11 -10 -16 -10 -6 0 -7 5 -4 10 3
6 11 10 16 10 6 0 7 -4 4 -10z m40 0 c-3 -5 -12 -10 -18 -10 -7 0 -6 4 3 10
19 12 23 12 15 0z m615 -5 c0 -8 -4 -15 -10 -15 -5 0 -7 7 -4 15 4 8 8 15 10
15 2 0 4 -7 4 -15z m1731 -272 c-17 -32 -63 -96 -102 -143 -77 -93 -111 -114
-264 -166 -44 -14 -113 -39 -152 -54 -40 -16 -73 -25 -73 -20 0 9 77 46 116
56 16 4 34 10 39 14 6 3 44 17 85 30 41 14 81 29 89 35 8 5 30 15 49 20 25 7
41 21 54 45 11 19 29 44 41 55 35 32 117 142 117 157 0 8 5 19 12 26 24 24 19
2 -11 -55z m1089 0 c0 -5 -27 -42 -60 -83 -81 -100 -116 -174 -126 -266 -4
-30 -14 -64 -23 -74 -17 -20 -85 -50 -255 -111 -60 -22 -114 -43 -120 -48 -19
-14 -138 -58 -194 -71 -58 -13 -57 -11 -67 -120 -4 -36 -20 -125 -36 -199 -32
-148 -55 -349 -42 -362 8 -8 100 25 192 68 62 28 174 73 184 73 5 0 54 20 108
45 91 42 129 53 129 39 0 -3 -13 -22 -29 -42 -37 -46 -67 -136 -76 -227 -4
-38 -13 -76 -19 -84 -11 -14 -116 -65 -206 -101 -25 -9 -113 -45 -196 -79
-163 -66 -164 -66 -164 -51 0 6 7 10 15 10 9 0 18 7 21 15 4 8 14 15 23 16 11
0 12 2 3 6 -10 4 -10 8 -1 19 9 11 8 14 -5 14 -10 0 -15 7 -13 21 5 45 -24 45
-147 0 -64 -24 -134 -56 -155 -71 -48 -36 -50 -44 -96 -401 -32 -250 -59 -410
-105 -624 -23 -107 -36 -192 -45 -297 -7 -75 -8 -78 -42 -98 -20 -11 -38 -19
-40 -16 -10 10 20 199 62 391 42 192 77 388 90 505 8 70 39 286 59 415 22 141
96 632 111 740 7 50 27 173 45 275 22 127 31 203 27 242 l-5 57 122 45 c66 25
198 75 291 111 94 37 245 95 336 129 91 35 226 93 300 129 140 68 149 72 149
60z m-3260 -196 c0 -29 -5 -59 -10 -67 -7 -10 -10 7 -10 58 0 46 4 71 10 67 6
-3 10 -30 10 -58z m130 -68 c0 -5 -4 -9 -10 -9 -5 0 -10 7 -10 16 0 8 5 12 10
9 6 -3 10 -10 10 -16z m3819 -121 c-16 -133 -31 -201 -48 -227 -14 -21 -2 71
25 193 13 60 24 122 24 137 0 16 4 29 8 29 5 0 1 -60 -9 -132z m-2379 -3 c0
-23 -276 -117 -333 -113 -47 4 -43 6 68 29 33 7 65 16 70 20 6 3 26 10 45 14
19 4 55 18 80 31 43 22 70 30 70 19z m382 -151 c-69 -59 -128 -178 -158 -318
-8 -38 -19 -75 -25 -82 -6 -7 -61 -30 -122 -50 -62 -20 -149 -53 -194 -72
l-83 -34 0 -39 c0 -21 -15 -132 -34 -246 -19 -114 -41 -257 -50 -318 -25 -163
-46 -267 -62 -296 -7 -15 -20 -75 -29 -135 -30 -199 -56 -348 -75 -429 -28
-119 -69 -370 -99 -598 -11 -82 -22 -151 -25 -155 -15 -15 -18 14 -8 76 6 37
18 110 27 162 50 292 78 460 85 495 9 45 41 233 70 407 29 171 28 175 -35 142
-16 -9 -67 -30 -112 -48 -116 -45 -131 -58 -139 -126 -6 -54 -18 -126 -68
-420 -13 -80 -27 -170 -31 -200 -3 -30 -24 -160 -46 -289 -47 -279 -47 -285
-16 -278 85 20 92 18 35 -9 -56 -26 -86 -63 -59 -72 12 -4 -38 -43 -71 -55
-15 -5 -18 0 -17 31 0 20 4 57 8 82 8 43 40 225 82 475 11 66 25 143 30 170 6
28 16 93 24 145 8 52 34 214 59 360 49 289 76 456 101 625 9 61 23 148 31 195
8 47 14 99 14 115 0 17 7 42 14 57 8 15 12 29 8 31 -7 4 -143 -52 -317 -129
-44 -20 -91 -46 -104 -58 l-24 -21 6 76 c4 41 14 107 23 145 14 61 14 100 2
169 -2 17 11 25 92 52 52 18 136 48 185 67 50 19 153 58 230 86 77 29 176 66
220 82 44 17 91 33 105 38 14 4 59 22 100 40 41 17 107 43 145 57 39 14 102
41 140 61 72 36 197 82 204 76 3 -2 -14 -20 -37 -40z m-1802 -114 l-11 -25 6
25 c2 14 5 34 6 45 2 19 2 19 6 0 2 -12 -1 -32 -7 -45z m6896 -72 c-14 -18
-33 -40 -43 -49 -58 -53 -223 -228 -223 -238 0 -6 -4 -11 -9 -11 -12 0 -141
-128 -141 -140 0 -16 22 -12 36 7 7 10 16 14 21 10 4 -5 0 -13 -10 -18 -9 -6
-17 -19 -17 -29 0 -21 49 -83 50 -62 0 14 30 17 30 2 0 -5 -5 -10 -12 -10 -6
0 -8 -3 -5 -6 4 -4 18 1 31 10 28 18 36 20 36 8 0 -5 -19 -22 -42 -39 -24 -17
-52 -39 -63 -50 -11 -10 -61 -52 -110 -93 -199 -166 -225 -192 -225 -229 0
-19 -8 -34 -24 -44 -13 -9 -29 -22 -37 -29 -22 -21 -119 -68 -119 -58 0 6 -7
10 -15 10 -8 0 -15 -5 -15 -10 0 -6 -8 -14 -17 -17 -23 -9 -110 -69 -143 -98
-14 -12 -34 -27 -45 -33 -11 -5 -51 -35 -90 -66 -38 -31 -73 -56 -78 -56 -4 0
-4 12 -1 28 7 24 6 26 -9 13 -13 -10 -17 -11 -17 -1 0 10 -15 11 -60 7 -41 -5
-67 -3 -81 6 -17 10 -22 9 -30 -5 -6 -10 -30 -23 -54 -29 -26 -7 -45 -17 -45
-25 0 -8 -6 -15 -12 -16 -40 -4 -65 -16 -106 -46 -18 -14 -35 -23 -38 -20 -2
3 46 42 108 86 62 45 149 111 193 148 44 36 138 111 209 166 71 56 136 114
145 129 9 16 20 29 24 29 5 0 6 4 2 10 -15 25 119 131 145 115 5 -3 17 6 28
20 11 14 28 25 37 25 9 0 31 10 48 22 30 20 170 131 193 153 6 5 35 30 64 55
29 25 60 52 68 60 9 8 29 25 45 37 16 12 55 46 86 75 31 29 99 91 151 138 52
46 118 108 145 137 56 59 80 71 41 21z m-1999 -185 c-3 -10 -5 -2 -5 17 0 19
2 27 5 18 2 -10 2 -26 0 -35z m-1341 -191 c-12 -11 -18 7 -10 30 l8 23 4 -23
c2 -13 1 -26 -2 -30z m-40 -142 c-8 -36 -14 -55 -15 -43 -1 29 21 131 26 118
2 -6 -3 -40 -11 -75z m1324 -54 c-6 -50 -18 -129 -25 -176 -7 -47 -16 -114
-20 -150 -7 -72 -23 -140 -38 -155 -10 -11 -3 46 19 170 8 44 19 114 24 155
29 236 38 289 48 261 2 -7 -1 -55 -8 -105z m-673 -178 c-1 -51 -3 -12 -3 87 0
99 2 141 3 93 2 -48 2 -129 0 -180z m3081 221 c-2 -7 -30 -37 -63 -67 -33 -30
-64 -60 -70 -66 -5 -6 -39 -36 -75 -66 -36 -30 -72 -61 -80 -69 -8 -8 -66 -57
-130 -110 -63 -52 -133 -111 -155 -131 -57 -49 -134 -112 -159 -129 -12 -8
-23 -17 -26 -21 -3 -3 -25 -21 -50 -40 -54 -42 -96 -77 -127 -107 -13 -13 -27
-23 -31 -23 -4 0 -23 -14 -42 -30 -19 -16 -38 -30 -41 -30 -3 0 -59 -36 -125
-81 -174 -118 -245 -164 -284 -186 -34 -18 -61 -35 -190 -118 -192 -124 -384
-229 -574 -314 -64 -29 -70 -20 -9 16 42 24 138 84 372 228 124 78 458 300
561 375 308 223 270 195 566 426 120 94 253 196 294 227 65 50 108 84 220 181
42 36 158 116 168 116 6 0 12 7 16 15 6 17 37 21 34 4z m724 -126 c-94 -91
-205 -193 -209 -193 -6 0 -75 -76 -90 -97 -8 -12 -22 -25 -31 -27 -10 -3 -23
-15 -30 -27 -12 -19 -11 -20 7 -14 16 5 23 -1 36 -30 8 -21 13 -49 10 -64 -3
-15 -2 -20 2 -11 12 23 27 19 71 -21 31 -28 39 -42 35 -58 -3 -12 -1 -21 6
-21 6 0 11 5 11 10 0 6 7 10 15 10 11 0 10 -7 -6 -35 -12 -19 -18 -35 -14 -35
5 0 31 19 59 43 28 24 58 47 66 51 21 11 -227 -233 -325 -320 -89 -80 -357
-295 -453 -364 -34 -25 -99 -72 -145 -106 -232 -171 -672 -454 -892 -574 -44
-23 -143 -78 -220 -120 -293 -161 -376 -202 -595 -291 -41 -17 -111 -46 -155
-64 -326 -133 -695 -257 -860 -289 -44 -9 -109 -23 -145 -31 -269 -63 -618
-121 -880 -145 -63 -5 -139 -13 -167 -16 -42 -4 -53 -2 -53 9 0 8 -9 17 -20
20 -11 3 -24 17 -30 31 -5 14 -15 25 -22 24 -7 -2 -13 3 -13 11 0 27 202 96
403 137 42 8 124 29 182 46 58 16 162 45 231 63 69 18 186 57 260 85 146 57
307 113 439 154 152 48 283 98 399 152 62 30 115 54 117 54 2 0 56 25 119 55
64 30 118 55 120 55 12 0 271 128 350 173 311 177 810 491 922 580 10 8 113
86 228 173 238 179 348 265 521 409 66 55 180 150 254 210 73 61 159 133 190
160 71 63 141 122 205 174 28 22 79 67 115 100 99 93 84 63 -18 -36z m-4437
-53 c-12 -37 -20 -49 -28 -41 -8 8 -4 24 12 56 30 59 38 51 16 -15z m-3430
-132 c-4 -18 -14 -56 -22 -85 -21 -66 -17 -70 92 -117 117 -50 198 -69 267
-63 l58 5 0 -71 c0 -39 -7 -105 -15 -147 -19 -100 -43 -252 -50 -320 -7 -56
-36 -256 -54 -365 -34 -199 -44 -259 -56 -340 -16 -107 -102 -565 -115 -615
-5 -19 -19 -82 -30 -139 -12 -56 -37 -138 -55 -181 -18 -43 -31 -81 -28 -84
14 -14 58 -2 248 63 191 66 301 106 605 219 250 92 336 122 360 122 20 0 21
-2 9 -17 -13 -14 -11 -16 12 -11 25 5 26 4 11 -24 -7 -16 -24 -36 -37 -44 -65
-43 -539 -225 -925 -356 -129 -44 -244 -83 -255 -88 -29 -13 -179 -49 -183
-45 -2 2 1 19 6 37 6 18 16 69 22 113 7 44 16 100 22 125 5 25 15 74 22 110 8
36 25 110 39 165 14 55 36 152 47 215 12 63 34 183 50 265 17 83 37 191 45
240 15 84 41 212 85 415 10 47 23 121 29 165 36 273 41 320 41 349 0 30 -5 34
-82 71 -104 51 -252 147 -272 177 -8 13 -18 35 -21 51 -5 17 -14 27 -25 27
-21 0 -89 -23 -148 -50 -23 -11 -100 -43 -170 -71 -70 -27 -164 -66 -210 -85
-67 -29 -206 -74 -227 -74 -3 0 -5 9 -5 20 0 11 -5 20 -12 20 -9 0 -9 3 -1 11
6 6 9 18 6 27 -4 9 -2 13 4 9 6 -4 17 0 24 9 17 21 106 65 226 113 54 21 152
62 218 91 66 28 141 58 167 67 25 8 95 40 155 69 59 29 114 54 121 54 10 0 12
-9 7 -32z m4067 -271 c2 -126 -1 -197 -7 -197 -6 0 -8 80 -6 227 5 262 9 253
13 -30z m668 74 c0 -40 -9 -61 -27 -61 -12 0 -14 8 -8 37 8 44 13 53 26 53 5
0 9 -13 9 -29z m-2754 -97 c-4 -14 -9 -24 -12 -21 -3 2 -2 17 2 31 3 15 9 25
11 22 3 -3 2 -17 -1 -32z m-15 -76 c-3 -21 -6 -26 -9 -15 -3 17 3 47 11 47 2
0 1 -15 -2 -32z m-14 -110 c-2 -13 -4 -3 -4 22 0 25 2 35 4 23 2 -13 2 -33 0
-45z m3533 -38 c0 -5 -10 -15 -22 -21 -23 -12 -23 -12 -4 10 21 23 26 26 26
11z m-3564 -185 c-20 -132 -21 -185 -3 -185 8 0 40 13 73 29 32 17 178 73 324
127 146 53 282 105 302 115 59 30 65 22 19 -25 -23 -24 -43 -49 -45 -57 -1 -8
-12 -43 -24 -79 -12 -36 -32 -105 -45 -155 l-23 -90 -60 -30 c-33 -17 -85 -41
-114 -53 -30 -13 -64 -27 -75 -32 -49 -22 -169 -60 -178 -57 -6 2 18 14 54 26
35 13 78 30 96 37 17 8 35 14 41 14 20 0 178 78 194 96 9 11 33 73 53 139 20
66 40 132 45 148 10 31 4 33 -36 12 -16 -8 -37 -15 -46 -15 -9 0 -20 -4 -23
-10 -3 -5 -13 -10 -21 -10 -17 0 -295 -97 -417 -145 -90 -36 -122 -42 -131
-26 -3 5 0 47 8 92 8 46 17 109 21 139 10 93 18 136 23 118 2 -10 -4 -65 -12
-123z m1104 -149 c0 -11 -19 -15 -25 -6 -3 5 1 10 9 10 9 0 16 -2 16 -4z m-50
-20 c0 -2 -15 -9 -32 -15 -30 -10 -31 -9 -14 4 18 14 46 20 46 11z m-394 -183
c-11 -11 -17 4 -9 23 7 18 8 18 11 1 2 -10 1 -21 -2 -24z m1811 1 c-3 -3 -12
-4 -19 -1 -8 3 -5 6 6 6 11 1 17 -2 13 -5z m-57 -34 c0 -5 -4 -10 -10 -10 -5
0 -10 5 -10 10 0 6 5 10 10 10 6 0 10 -4 10 -10z m-2313 -136 c-3 -3 -12 -4
-19 -1 -8 3 -5 6 6 6 11 1 17 -2 13 -5z m-52 -23 c-3 -6 -14 -11 -23 -11 -13
0 -13 2 4 14 21 15 30 14 19 -3z m-70 -31 c-3 -5 -11 -10 -16 -10 -6 0 -7 5
-4 10 3 6 11 10 16 10 6 0 7 -4 4 -10z m-70 -31 c-22 -10 -49 -18 -60 -18 -13
0 -6 6 20 19 22 11 49 19 60 19 13 0 7 -7 -20 -20z m2912 -55 c-3 -3 -12 -4
-19 -1 -8 3 -5 6 6 6 11 1 17 -2 13 -5z m-2788 -495 c-23 -14 18 -27 61 -19
25 5 46 7 48 5 4 -4 -95 -45 -110 -45 -8 0 -18 -4 -23 -9 -6 -5 -32 -16 -60
-24 -60 -18 -127 -44 -217 -86 -37 -17 -80 -33 -95 -37 -15 -4 -33 -10 -38
-15 -18 -14 -115 -49 -115 -41 0 8 54 37 88 47 26 8 29 25 5 26 -15 0 -15 2 2
9 18 7 18 9 -9 19 -34 13 -28 20 34 46 25 10 59 23 75 30 30 13 159 62 227 87
35 13 146 19 127 7z m-580 -283 c-2 -2 -15 -7 -29 -10 l-25 -7 25 15 c21 12
42 14 29 2z"/>
<path d="M11095 9646 c-33 -13 -73 -28 -88 -34 -16 -7 -32 -12 -36 -12 -4 0
-16 -7 -27 -14 -10 -8 26 0 81 18 55 18 105 31 112 29 7 -3 15 -14 19 -25 3
-11 10 -16 14 -12 9 10 1 75 -9 73 -3 -1 -33 -11 -66 -23z"/>
<path d="M10895 9563 c-11 -3 -24 -10 -30 -15 -12 -13 35 0 50 13 5 5 7 8 5 8
-3 -1 -14 -3 -25 -6z"/>
<path d="M10830 9530 c-9 -6 -10 -10 -3 -10 6 0 15 5 18 10 8 12 4 12 -15 0z"/>
<path d="M10763 8955 c-6 -11 -14 -36 -18 -55 -4 -19 -12 -40 -17 -47 -5 -7
-8 -20 -6 -30 2 -10 16 14 32 54 15 39 26 77 24 84 -3 10 -8 8 -15 -6z"/>
<path d="M11520 8420 c0 -5 5 -10 10 -10 6 0 10 5 10 10 0 6 -4 10 -10 10 -5
0 -10 -4 -10 -10z"/>
<path d="M10415 8196 c-3 -9 -7 -23 -10 -31 -2 -8 -2 -15 1 -15 7 0 25 52 20
58 -3 3 -8 -3 -11 -12z"/>
<path d="M10382 8115 c-17 -37 -14 -45 4 -12 9 16 14 31 11 33 -2 2 -9 -7 -15
-21z"/>
<path d="M10357 8063 c-4 -3 -7 -16 -6 -27 0 -19 1 -19 10 3 10 24 8 36 -4 24z"/>
<path d="M10045 8000 c-4 -12 -5 -24 -2 -27 3 -2 8 5 12 17 4 12 5 24 2 27 -3
2 -8 -5 -12 -17z"/>
<path d="M4683 10315 c-9 -24 1 -27 15 -5 8 13 8 20 2 20 -6 0 -13 -7 -17 -15z"/>
<path d="M4290 9070 c-6 -11 -7 -20 -2 -20 10 0 32 21 32 32 0 16 -19 8 -30
-12z"/>
<path d="M8960 8845 c-33 -19 -21 -19 21 0 19 8 27 14 19 14 -8 0 -26 -6 -40
-14z"/>
<path d="M8875 8815 c-16 -7 -50 -21 -75 -30 -88 -34 -142 -59 -131 -63 7 -2
58 15 115 37 57 23 108 41 113 41 6 0 16 7 23 15 16 19 -2 19 -45 0z"/>
<path d="M8963 8595 c0 -22 2 -30 4 -17 2 12 2 30 0 40 -3 9 -5 -1 -4 -23z"/>
<path d="M8623 8555 c0 -22 2 -30 4 -17 2 12 2 30 0 40 -3 9 -5 -1 -4 -23z"/>
<path d="M8941 8531 c0 -19 -7 -60 -15 -90 -13 -51 -29 -148 -41 -256 -2 -22
-9 -55 -14 -72 -5 -18 -8 -33 -6 -33 3 0 0 -12 -6 -27 -5 -14 -7 -40 -2 -57
l7 -31 7 40 c9 55 36 224 60 386 12 75 19 144 16 155 -3 11 -5 5 -6 -15z"/>
<path d="M8580 8333 c0 -55 5 -54 14 5 4 26 2 42 -4 42 -5 0 -10 -21 -10 -47z"/>
<path d="M9607 7953 c-23 -66 -21 -80 3 -18 11 28 19 54 17 58 -1 5 -10 -13
-20 -40z"/>
<path d="M8836 7928 c-3 -13 -5 -34 -5 -48 1 -15 5 -7 10 19 9 47 6 68 -5 29z"/>
<path d="M9140 7853 c-54 -25 -93 -40 -120 -48 -14 -4 -44 -16 -67 -26 -23
-10 -60 -21 -83 -23 -45 -4 -61 -13 -42 -25 13 -8 86 7 111 23 7 5 21 10 30
11 16 1 93 34 141 59 14 7 37 16 53 20 15 3 27 11 27 16 0 13 -8 12 -50 -7z"/>
<path d="M8465 7560 c-4 -17 -5 -34 -2 -36 3 -3 8 9 12 26 4 17 5 34 2 36 -3
3 -8 -9 -12 -26z"/>
<path d="M9075 7510 c-13 -6 -15 -9 -5 -9 8 0 22 4 30 9 18 12 2 12 -25 0z"/>
<path d="M8453 7460 c0 -30 2 -43 4 -27 2 15 2 39 0 55 -2 15 -4 2 -4 -28z"/>
<path d="M8950 7474 c-22 -8 -28 -13 -15 -13 11 0 34 6 50 14 38 17 11 17 -35
-1z"/>
<path d="M8888 7443 c7 -3 16 -2 19 1 4 3 -2 6 -13 5 -11 0 -14 -3 -6 -6z"/>
<path d="M8740 7400 c0 -5 4 -10 9 -10 6 0 13 5 16 10 3 6 -1 10 -9 10 -9 0
-16 -4 -16 -10z"/>
<path d="M8432 7350 c0 -14 2 -19 5 -12 2 6 2 18 0 25 -3 6 -5 1 -5 -13z"/>
<path d="M8618 7333 c7 -3 16 -2 19 1 4 3 -2 6 -13 5 -11 0 -14 -3 -6 -6z"/>
<path d="M8560 7323 c-14 -3 -28 -10 -31 -15 -4 -6 -28 -11 -55 -13 -34 -2
-50 -8 -52 -19 -3 -12 4 -14 34 -9 21 4 49 12 64 20 14 7 31 13 38 13 7 0 20
7 28 15 9 8 12 14 7 14 -4 -1 -19 -4 -33 -6z"/>
<path d="M7185 6729 c-9 -27 0 -35 20 -19 19 16 19 26 1 33 -9 4 -17 -2 -21
-14z"/>
<path d="M6135 8675 c-88 -35 -177 -67 -198 -70 -42 -8 -42 -9 -52 -120 -6
-69 -34 -268 -75 -535 -34 -221 -35 -230 -18 -230 9 0 21 6 27 14 7 8 20 12
29 9 15 -3 122 39 328 131 29 14 31 18 43 103 6 48 18 122 26 163 17 90 71
462 79 543 5 50 4 57 -11 56 -10 0 -90 -29 -178 -64z"/>
<path d="M2363 5960 c0 -25 2 -35 4 -22 2 12 2 32 0 45 -2 12 -4 2 -4 -23z"/>
<path d="M2390 4860 c-8 -5 -10 -10 -5 -10 6 0 17 5 25 10 8 5 11 10 5 10 -5
0 -17 -5 -25 -10z"/>
<path d="M5950 7424 c0 -8 5 -12 10 -9 6 3 10 10 10 16 0 5 -4 9 -10 9 -5 0
-10 -7 -10 -16z"/>
<path d="M6401 7254 c0 -11 3 -14 6 -6 3 7 2 16 -1 19 -3 4 -6 -2 -5 -13z"/>
<path d="M6407 7200 c-7 -19 -4 -80 4 -80 3 0 5 -44 4 -97 -1 -54 1 -84 5 -68
6 27 7 24 14 -25 9 -68 15 -90 25 -90 4 0 -1 64 -11 143 -22 175 -33 237 -41
217z"/>
<path d="M6131 6904 c0 -11 3 -14 6 -6 3 7 2 16 -1 19 -3 4 -6 -2 -5 -13z"/>
<path d="M6420 6831 c0 -6 5 -13 10 -16 6 -3 10 1 10 9 0 9 -4 16 -10 16 -5 0
-10 -4 -10 -9z"/>
<path d="M6460 6771 c0 -22 -3 -46 -6 -55 -4 -11 -1 -16 10 -16 10 0 16 -9 16
-24 0 -13 3 -32 6 -41 5 -13 8 -14 15 -3 6 8 9 -1 9 -27 0 -22 3 -51 6 -65 5
-18 4 -22 -5 -14 -6 5 -17 33 -23 62 -11 46 -16 52 -38 52 -19 0 -22 -2 -10
-10 19 -12 2 -63 -23 -68 -14 -3 -17 4 -17 44 0 30 6 54 17 66 15 17 15 19 -3
33 -10 8 -31 15 -46 15 -26 0 -28 -3 -28 -40 0 -22 -4 -40 -10 -40 -5 0 -10 5
-10 10 0 6 -18 10 -40 10 -38 0 -40 -1 -41 -32 0 -26 -2 -29 -8 -14 -14 37
-19 -15 -5 -54 7 -19 13 -28 13 -18 1 12 14 18 52 23 27 4 53 4 56 1 4 -3 -1
-6 -10 -6 -13 0 -17 -9 -17 -40 0 -36 11 -52 23 -32 2 4 2 2 1 -5 -2 -6 2 -14
9 -17 7 -2 5 -5 -5 -5 -9 -1 -19 3 -22 8 -3 5 -15 7 -26 4 -11 -3 -18 -9 -15
-13 3 -5 -1 -10 -7 -13 -7 -2 -10 -7 -6 -11 3 -4 27 0 52 8 26 9 58 16 71 16
14 0 25 4 25 9 0 5 27 12 60 16 50 6 60 10 60 27 0 27 -29 160 -39 178 -5 9
-12 39 -16 68 -8 61 -25 70 -25 13z"/>
<path d="M6170 6710 c0 -5 5 -10 10 -10 6 0 10 5 10 10 0 6 -4 10 -10 10 -5 0
-10 -4 -10 -10z"/>
<path d="M6204 6508 c2 -18 13 -49 26 -68 12 -19 20 -27 17 -18 -3 9 1 22 9
28 20 18 17 33 -5 27 -16 -4 -21 2 -26 24 -9 41 -24 46 -21 7z"/>
<path d="M8265 4439 c-11 -17 -2 -18 19 -3 17 12 17 14 4 14 -9 0 -20 -5 -23
-11z"/>
<path d="M9100 4720 c-9 -6 -10 -10 -3 -10 6 0 15 5 18 10 8 12 4 12 -15 0z"/>
<path d="M10388 3879 c-10 -5 -18 -14 -18 -19 0 -14 28 -1 34 16 6 16 6 16
-16 3z"/>
</g>
</svg>
